# Blender v2.79 (sub 0) OBJ File: ''
# www.blender.org
mtllib crowbar2.mtl
o Crowbar
v 85.739754 12.932915 -5.090803
v 85.739754 11.457592 -9.144220
v -74.028458 11.457600 -9.144211
v -74.028458 12.932922 -5.090794
v 85.739754 9.333580 -9.518741
v -74.028458 9.333588 -9.518732
v 85.739754 7.209569 -9.893261
v 85.739754 4.436868 -6.588885
v -74.028458 4.436875 -6.588876
v -74.028458 7.209576 -9.893252
v 85.739754 5.912191 -2.535469
v -74.028458 5.912198 -2.535459
v 85.739754 8.036202 -2.160948
v -74.028458 8.036210 -2.160939
v 85.739754 10.160214 -1.786427
v -74.028458 10.160221 -1.786418
v -76.763351 11.447308 -9.085838
v -76.100510 12.932924 -5.090797
v -76.763351 9.323296 -9.460360
v -76.100510 4.436876 -6.588880
v -76.763351 7.199284 -9.834880
v -75.437668 5.922493 -2.593839
v -75.437668 8.046504 -2.219318
v -75.437668 10.170516 -1.844798
v -80.562088 11.252695 -7.982137
v -78.888748 12.796736 -4.318436
v -80.562088 9.128683 -8.356657
v -78.888748 4.300688 -5.816518
v -80.562088 7.004672 -8.731178
v -77.215424 5.844728 -2.152816
v -77.215424 7.968740 -1.778296
v -77.215424 10.092752 -1.403775
v -83.156433 10.978700 -6.428227
v -81.137527 12.556915 -2.958345
v -83.156433 8.854688 -6.802748
v -81.137527 4.060867 -4.456428
v -83.156433 6.730676 -7.177268
v -79.118652 5.639083 -0.986544
v -79.118652 7.763095 -0.612023
v -79.118652 9.887106 -0.237503
v -85.700653 10.551359 -4.004658
v -82.906921 12.244732 -1.187861
v -85.700653 8.427347 -4.379179
v -82.906921 3.748684 -2.685945
v -85.700653 6.303335 -4.753699
v -80.113205 5.442055 0.130860
v -80.113205 7.566066 0.505382
v -80.113205 9.690078 0.879902
v -87.578247 9.767089 0.443159
v -83.873093 11.808374 1.286842
v -87.578247 7.643077 0.068637
v -83.873093 3.312328 -0.211247
v -87.578247 5.519065 -0.305884
v -80.503174 5.309793 0.880959
v -80.503174 7.433805 1.255480
v -80.503174 9.557816 1.630000
v -87.236237 9.089746 4.291710
v -83.702866 11.393309 3.640795
v -87.206619 6.972272 3.885282
v -83.702866 2.897263 2.142700
v -87.177002 4.854800 3.478846
v -80.488953 5.133792 1.879110
v -80.488953 7.257803 2.253631
v -80.488953 9.381815 2.628152
v -84.416962 8.525341 6.792909
v -82.422348 10.957992 6.109594
v -84.387360 6.407866 6.386483
v -82.422348 2.461946 4.611502
v -84.357742 4.290395 5.980047
v -79.865402 4.720005 4.225809
v -79.865402 6.844017 4.600329
v -79.865402 8.968027 4.974851
v -77.000046 8.505804 13.673344
v -75.836884 9.748060 12.971445
v -77.011948 5.355354 13.016691
v -75.836884 1.252014 11.473358
v -76.862228 1.880293 12.443560
v -74.161682 3.523820 11.009691
v -74.161682 5.647833 11.384214
v -74.161682 7.771843 11.758738
v -68.854507 7.763582 21.081982
v -68.771164 5.608368 20.717691
v -68.410736 5.706545 20.217588
v -68.410736 7.294876 20.468374
v -68.053497 1.199145 19.004906
v -67.932220 2.574852 19.052046
v -68.410736 2.446692 19.702885
v -68.410736 0.496124 19.394907
v -68.067352 7.210409 19.973463
v -67.932220 5.834705 19.566750
v -76.548477 5.359746 13.447773
v -75.649826 5.398165 12.800144
v -68.410736 5.706543 20.217598
v -68.410736 8.820637 20.709278
v 89.038147 12.932697 -5.089577
v 88.275444 11.443711 -9.065502
v 88.275444 9.319699 -9.440022
v 88.275444 7.195688 -9.814543
v 89.038147 4.436650 -6.587660
v 89.800842 5.925638 -2.611735
v 89.800842 8.049649 -2.237215
v 89.800842 10.173660 -1.862694
v 92.095680 13.098558 -6.030214
v 90.827461 11.584708 -9.865140
v 90.827461 9.460697 -10.239660
v 90.827461 7.336685 -10.614182
v 92.095680 4.602510 -7.528297
v 93.363899 6.116360 -3.693372
v 93.363899 8.240371 -3.318851
v 93.363899 10.364382 -2.944331
v 112.207886 16.513493 -15.811064
v 112.207886 16.513489 -15.811066
v 111.651199 13.591084 -16.931709
v 111.638382 10.576607 -17.484993
v 111.625549 7.562129 -18.038280
v 112.156586 4.455584 -18.024204
v 112.713272 7.377988 -16.903557
v 112.726089 10.392467 -16.350273
v 112.738922 13.406942 -15.796988
v 112.169403 7.470057 -17.470917
v 112.195053 13.499015 -16.364349
v 112.182236 10.484534 -16.917633
v -76.572205 8.950576 14.161615
v -75.416550 10.258084 13.409437
v -75.416550 0.770051 11.911352
v -68.410736 -0.667397 19.211191
v -68.680679 0.085481 19.669918
v -76.350616 1.401800 12.820375
v -74.261200 2.581313 11.576908
v -73.797607 5.680100 11.817232
v -74.330978 8.778884 12.592930
v -68.696426 2.365020 20.122442
vn 0.0000 0.9397 -0.3420
vn -0.0000 0.1736 -0.9848
vn -0.0000 -0.7660 -0.6428
vn -0.0000 -0.9397 0.3420
vn 0.0000 -0.1736 0.9848
vn 0.0000 0.7660 0.6428
vn -0.0108 0.9396 -0.3420
vn 0.0000 0.9373 -0.3485
vn -0.0217 0.1736 -0.9846
vn -0.0109 -0.7626 -0.6468
vn -0.0210 -0.9395 0.3419
vn -0.0000 -0.9373 0.3485
vn -0.0420 -0.1735 0.9839
vn -0.0214 0.7592 0.6505
vn -0.1421 0.9353 -0.3242
vn -0.1372 0.9337 -0.3308
vn -0.2830 0.1666 -0.9446
vn -0.1359 -0.7680 -0.6259
vn -0.1432 -0.7652 -0.6277
vn 0.1224 -0.9367 0.3280
vn 0.1372 -0.9337 0.3308
vn 0.2443 -0.1684 0.9550
vn 0.1359 0.7680 0.6259
vn 0.1243 0.7620 0.6355
vn -0.2605 0.9265 -0.2715
vn -0.2617 0.9268 -0.2693
vn -0.5196 0.1484 -0.8414
vn -0.2624 -0.7779 -0.5710
vn -0.2599 -0.7786 -0.5712
vn 0.2650 -0.9259 0.2692
vn 0.2617 -0.9268 0.2693
vn 0.5283 -0.1474 0.8362
vn 0.2624 0.7779 0.5710
vn 0.2642 0.7791 0.5685
vn -0.3528 0.9119 -0.2095
vn -0.3567 0.9135 -0.1954
vn -0.6952 0.1248 -0.7079
vn -0.3630 -0.7854 -0.5013
vn -0.3484 -0.7897 -0.5050
vn 0.3873 -0.9031 0.1854
vn 0.3567 -0.9135 0.1954
vn 0.7520 -0.1145 0.6491
vn 0.3630 0.7854 0.5013
vn 0.3760 0.7956 0.4750
vn -0.4813 0.8752 -0.0488
vn -0.4768 0.8784 -0.0313
vn -0.9234 0.0667 -0.3780
vn -0.4899 -0.8055 -0.3333
vn -0.4742 -0.8108 -0.3431
vn 0.4559 -0.8864 0.0807
vn 0.4992 -0.8654 0.0423
vn 0.8901 -0.0791 0.4488
vn 0.4899 0.8055 0.3333
vn 0.4837 0.7837 0.3897
vn -0.5068 0.8402 0.1929
vn -0.5126 0.8385 0.1849
vn -0.9953 -0.0315 0.0914
vn -0.9962 -0.0151 0.0859
vn -0.5062 -0.8548 -0.1141
vn -0.5161 -0.8513 -0.0947
vn 0.5402 -0.8274 -0.1536
vn 0.5513 -0.8139 -0.1834
vn 0.9999 0.0024 -0.0138
vn 0.5446 0.8318 0.1073
vn 0.5561 0.8198 0.1366
vn -0.3678 0.7278 0.5788
vn -0.6301 0.6401 0.4397
vn -0.6728 -0.1485 0.7248
vn -0.4640 -0.8817 0.0852
vn -0.4865 -0.7916 0.3697
vn 0.5323 -0.7982 -0.2822
vn 0.5649 -0.7112 -0.4184
vn 0.9674 0.0440 -0.2493
vn 0.5024 0.8577 -0.1093
vn 0.6080 0.7936 -0.0216
vn -0.5398 0.6066 0.5836
vn -0.4361 0.7162 0.5448
vn -0.3709 -0.9078 0.1959
vn -0.5251 -0.7909 0.3141
vn 0.5869 -0.5534 -0.5910
vn 0.4871 -0.6510 -0.5822
vn 0.7702 0.1107 -0.6281
vn 0.4871 0.8109 -0.3245
vn 0.5869 0.7222 -0.3661
vn 0.8156 -0.0656 0.5749
vn 0.7685 -0.0998 0.6320
vn -0.9945 -0.0330 0.0996
vn -0.9954 -0.0166 0.0940
vn 0.8108 -0.0913 0.5782
vn 0.8108 -0.0913 0.5781
vn 0.0380 -0.9993 -0.0065
vn 0.1382 -0.9859 -0.0939
vn 0.0002 0.9397 -0.3420
vn 0.0161 0.9353 -0.3534
vn 0.0315 0.1736 -0.9843
vn 0.0158 -0.7659 -0.6427
vn 0.0002 -0.7600 -0.6499
vn -0.0002 -0.9397 0.3420
vn 0.0097 -0.9370 0.3491
vn 0.0191 -0.1736 0.9846
vn 0.0095 0.7660 0.6428
vn -0.0002 0.7600 0.6499
vn -0.1496 0.9350 -0.3215
vn -0.1517 0.9355 -0.3191
vn -0.3032 0.1655 -0.9385
vn -0.1522 -0.7687 -0.6213
vn -0.1492 -0.7697 -0.6207
vn 0.1496 -0.9350 0.3215
vn 0.1474 -0.9357 0.3206
vn 0.2946 -0.1659 0.9411
vn 0.1478 0.7687 0.6223
vn 0.1492 0.7697 0.6207
vn -0.2866 0.9197 -0.2683
vn -0.2397 0.6909 -0.6821
vn -0.3293 0.3921 -0.8590
vn -0.3311 0.1639 -0.9293
vn -0.3321 0.1716 -0.9275
vn -0.2059 -0.7729 -0.6002
vn -0.4625 -0.0831 -0.8827
vn 0.1588 -0.9352 0.3166
vn 0.5365 -0.3893 0.7487
vn 0.5644 -0.1434 0.8130
vn 0.5634 -0.1515 0.8122
vn 0.2617 0.7733 0.5776
vn 0.4255 0.0768 0.9017
vn -0.3322 0.1638 -0.9289
vn -0.3328 0.1716 -0.9272
vn 0.5635 -0.1435 0.8136
vn 0.5628 -0.1515 0.8126
vn 0.7263 0.1211 -0.6766
vn -0.8756 -0.4817 0.0362
vn -0.5467 0.4731 0.6909
vn -0.4361 0.7063 0.5576
vn -0.6538 -0.5506 0.5190
vn -0.3704 -0.8966 0.2425
vn 0.7302 -0.2116 -0.6496
vn 0.5789 -0.4897 -0.6520
vn 0.7624 -0.0451 -0.6455
vn 0.7616 -0.0639 -0.6449
vn 0.7379 0.4043 -0.5404
vn 0.5934 0.6764 -0.4363
vn 0.7637 0.2509 -0.5948
vn 0.7634 0.2774 -0.5833
vn 0.1433 -0.9857 -0.0888
vn 0.1138 -0.9910 -0.0698
vn 0.1422 0.9462 0.2908
vn 0.0448 0.9347 0.3526
vn 0.1284 0.9534 0.2730
vn 0.1451 0.9552 0.2579
vn -0.7578 0.6517 -0.0316
vn -0.7268 0.6868 0.0112
vn -0.6727 -0.1485 0.7248
vn -0.6605 -0.7311 -0.1706
vn -0.6150 -0.7744 -0.1484
vn 0.5430 -0.4743 -0.6929
vn 0.3612 -0.4347 -0.8250
vn 0.9877 -0.1428 -0.0640
vn 0.7563 0.1136 -0.6443
vn 0.3397 0.6332 -0.6955
vn 0.1172 0.5897 -0.7991
vn 0.7238 0.2822 -0.6296
vn 0.9674 -0.0440 0.2494
vn 0.7793 -0.0977 0.6190
vn 0.8314 -0.1027 0.5461
usemtl None
s off
f 1//1 2//1 3//1
f 3//1 4//1 1//1
f 5//2 6//2 3//2
f 3//2 2//2 5//2
f 7//3 8//3 9//3
f 9//3 10//3 7//3
f 8//4 11//4 12//4
f 12//4 9//4 8//4
f 13//5 14//5 12//5
f 12//5 11//5 13//5
f 15//6 1//6 4//6
f 4//6 16//6 15//6
f 4//7 3//7 17//7
f 17//8 18//8 4//8
f 6//9 19//9 17//9
f 17//9 3//9 6//9
f 10//3 9//3 20//3
f 20//10 21//10 10//10
f 9//11 12//11 22//11
f 22//12 20//12 9//12
f 14//13 23//13 22//13
f 22//13 12//13 14//13
f 16//6 4//6 18//6
f 18//14 24//14 16//14
f 18//15 17//15 25//15
f 25//16 26//16 18//16
f 19//17 27//17 25//17
f 25//17 17//17 19//17
f 21//18 20//18 28//18
f 28//19 29//19 21//19
f 20//20 22//20 30//20
f 30//21 28//21 20//21
f 23//22 31//22 30//22
f 30//22 22//22 23//22
f 24//23 18//23 26//23
f 26//24 32//24 24//24
f 26//25 25//25 33//25
f 33//26 34//26 26//26
f 27//27 35//27 33//27
f 33//27 25//27 27//27
f 29//28 28//28 36//28
f 36//29 37//29 29//29
f 28//30 30//30 38//30
f 38//31 36//31 28//31
f 31//32 39//32 38//32
f 38//32 30//32 31//32
f 32//33 26//33 34//33
f 34//34 40//34 32//34
f 34//35 33//35 41//35
f 41//36 42//36 34//36
f 35//37 43//37 41//37
f 41//37 33//37 35//37
f 37//38 36//38 44//38
f 44//39 45//39 37//39
f 36//40 38//40 46//40
f 46//41 44//41 36//41
f 39//42 47//42 46//42
f 46//42 38//42 39//42
f 40//43 34//43 42//43
f 42//44 48//44 40//44
f 42//45 41//45 49//45
f 49//46 50//46 42//46
f 43//47 51//47 49//47
f 49//47 41//47 43//47
f 45//48 44//48 52//48
f 52//49 53//49 45//49
f 44//50 46//50 54//50
f 54//51 52//51 44//51
f 47//52 55//52 54//52
f 54//52 46//52 47//52
f 48//53 42//53 50//53
f 50//54 56//54 48//54
f 50//55 49//55 57//55
f 57//56 58//56 50//56
f 51//57 59//57 57//57
f 57//58 49//58 51//58
f 53//59 52//59 60//59
f 60//60 61//60 53//60
f 52//61 54//61 62//61
f 62//62 60//62 52//62
f 55//63 63//63 62//63
f 62//63 54//63 55//63
f 56//64 50//64 58//64
f 58//65 64//65 56//65
f 58//66 57//66 65//66
f 65//67 66//67 58//67
f 59//68 67//68 65//68
f 65//68 57//68 59//68
f 61//69 60//69 68//69
f 68//70 69//70 61//70
f 60//71 62//71 70//71
f 70//72 68//72 60//72
f 63//73 71//73 70//73
f 70//73 62//73 63//73
f 64//74 58//74 66//74
f 66//75 72//75 64//75
f 66//76 65//76 73//76
f 73//77 74//77 66//77
f 65//68 67//68 75//68
f 75//68 73//68 65//68
f 68//78 76//78 77//78
f 77//79 69//79 68//79
f 70//80 78//80 76//80
f 76//81 68//81 70//81
f 71//82 79//82 78//82
f 78//82 70//82 71//82
f 72//83 66//83 74//83
f 74//84 80//84 72//84
f 81//85 82//85 83//85
f 83//86 84//86 81//86
f 7//2 10//2 6//2
f 6//2 5//2 7//2
f 15//5 16//5 14//5
f 14//5 13//5 15//5
f 10//9 21//9 19//9
f 19//9 6//9 10//9
f 16//13 24//13 23//13
f 23//13 14//13 16//13
f 21//17 29//17 27//17
f 27//17 19//17 21//17
f 24//22 32//22 31//22
f 31//22 23//22 24//22
f 29//27 37//27 35//27
f 35//27 27//27 29//27
f 32//32 40//32 39//32
f 39//32 31//32 32//32
f 37//37 45//37 43//37
f 43//37 35//37 37//37
f 40//42 48//42 47//42
f 47//42 39//42 40//42
f 45//47 53//47 51//47
f 51//47 43//47 45//47
f 48//52 56//52 55//52
f 55//52 47//52 48//52
f 53//87 61//87 59//87
f 59//88 51//88 53//88
f 56//63 64//63 63//63
f 63//63 55//63 56//63
f 61//68 69//68 67//68
f 67//68 59//68 61//68
f 64//73 72//73 71//73
f 71//73 63//73 64//73
f 69//68 77//68 75//68
f 75//68 67//68 69//68
f 72//82 80//82 79//82
f 79//82 71//82 72//82
f 85//89 86//89 87//89
f 87//90 88//90 85//90
f 89//90 84//90 83//90
f 83//89 90//89 89//89
f 82//91 91//91 92//91
f 92//92 93//92 82//92
f 89//90 94//90 84//90
f 84//86 94//86 81//86
f 2//93 1//93 95//93
f 95//94 96//94 2//94
f 5//95 2//95 96//95
f 96//95 97//95 5//95
f 8//96 7//96 98//96
f 98//97 99//97 8//97
f 11//98 8//98 99//98
f 99//99 100//99 11//99
f 13//100 11//100 100//100
f 100//100 101//100 13//100
f 1//101 15//101 102//101
f 102//102 95//102 1//102
f 7//95 5//95 97//95
f 97//95 98//95 7//95
f 15//100 13//100 101//100
f 101//100 102//100 15//100
f 96//103 95//103 103//103
f 103//104 104//104 96//104
f 97//105 96//105 104//105
f 104//105 105//105 97//105
f 99//106 98//106 106//106
f 106//107 107//107 99//107
f 100//108 99//108 107//108
f 107//109 108//109 100//109
f 101//110 100//110 108//110
f 108//110 109//110 101//110
f 95//111 102//111 110//111
f 110//112 103//112 95//112
f 98//105 97//105 105//105
f 105//105 106//105 98//105
f 102//110 101//110 109//110
f 109//110 110//110 102//110
f 104//113 103//113 111//113
f 104//114 111//114 112//114
f 104//115 112//115 113//115
f 105//116 104//116 113//116
f 113//117 114//117 105//117
f 107//118 106//118 115//118
f 115//119 116//119 107//119
f 108//120 107//120 116//120
f 116//121 117//121 108//121
f 109//122 108//122 117//122
f 117//123 118//123 109//123
f 103//124 110//124 119//124
f 119//125 111//125 103//125
f 106//126 105//126 114//126
f 114//127 115//127 106//127
f 110//128 109//128 118//128
f 118//129 119//129 110//129
f 117//130 116//130 120//130
f 116//130 115//130 120//130
f 113//130 121//130 122//130
f 122//130 114//130 113//130
f 121//130 119//130 118//130
f 118//130 122//130 121//130
f 115//130 114//130 122//130
f 122//130 120//130 115//130
f 117//130 120//130 122//130
f 122//130 118//130 117//130
f 113//130 112//130 121//130
f 111//130 119//130 121//130
f 121//131 112//131 111//131
f 123//132 81//132 94//132
f 94//133 124//133 123//133
f 82//68 81//68 123//68
f 123//68 91//68 82//68
f 125//134 126//134 127//134
f 127//135 128//135 125//135
f 129//136 85//136 126//136
f 126//137 125//137 129//137
f 86//138 85//138 129//138
f 129//139 130//139 86//139
f 94//140 89//140 131//140
f 131//141 124//141 94//141
f 128//68 127//68 132//68
f 132//68 91//68 128//68
f 131//142 89//142 90//142
f 90//143 130//143 131//143
f 130//144 90//144 93//144
f 93//145 92//145 130//145
f 87//146 86//146 130//146
f 130//147 92//147 87//147
f 132//148 87//148 92//148
f 92//149 91//149 132//149
f 123//150 124//150 74//150
f 74//151 73//151 123//151
f 91//68 123//68 73//68
f 73//152 75//152 91//152
f 76//153 125//153 128//153
f 128//154 77//154 76//154
f 78//155 129//155 125//155
f 125//156 76//156 78//156
f 130//157 129//157 78//157
f 78//158 79//158 130//158
f 124//159 131//159 80//159
f 80//160 74//160 124//160
f 77//68 128//68 91//68
f 91//68 75//68 77//68
f 131//161 130//161 79//161
f 79//162 80//162 131//162
f 126//90 85//90 88//90
f 127//163 88//163 87//163
f 87//164 132//164 127//164
f 88//163 127//163 126//163
